<?xml version="1.0" encoding="UTF-8" standalone="no"?>
<svg
   inkscape:export-ydpi="2048"
   inkscape:export-xdpi="2048"
   inkscape:export-filename="sebaubuntu-python.png"
   sodipodi:docname="sebaubuntu-python.svg"
   inkscape:version="1.4.3 (0d15f75042, 2025-12-25)"
   id="svg8"
   version="1.1"
   viewBox="0 0 48 48"
   height="48"
   width="48"
   xmlns:inkscape="http://www.inkscape.org/namespaces/inkscape"
   xmlns:sodipodi="http://sodipodi.sourceforge.net/DTD/sodipodi-0.dtd"
   xmlns:xlink="http://www.w3.org/1999/xlink"
   xmlns="http://www.w3.org/2000/svg"
   xmlns:svg="http://www.w3.org/2000/svg"
   xmlns:rdf="http://www.w3.org/1999/02/22-rdf-syntax-ns#"
   xmlns:cc="http://creativecommons.org/ns#"
   xmlns:dc="http://purl.org/dc/elements/1.1/">
  <defs
     id="defs2">
    <linearGradient
       id="linearGradient2795">
      <stop
         id="stop2797"
         offset="0"
         style="stop-color:#b8b8b8;stop-opacity:0.49803922;" />
      <stop
         id="stop2799"
         offset="1"
         style="stop-color:#7f7f7f;stop-opacity:0;" />
    </linearGradient>
    <linearGradient
       id="linearGradient2787">
      <stop
         id="stop2789"
         offset="0"
         style="stop-color:#7f7f7f;stop-opacity:0.5;" />
      <stop
         id="stop2791"
         offset="1"
         style="stop-color:#7f7f7f;stop-opacity:0;" />
    </linearGradient>
    <linearGradient
       id="linearGradient3676">
      <stop
         id="stop3678"
         offset="0"
         style="stop-color:#b2b2b2;stop-opacity:0.5;" />
      <stop
         id="stop3680"
         offset="1"
         style="stop-color:#b3b3b3;stop-opacity:0;" />
    </linearGradient>
    <linearGradient
       id="linearGradient3236">
      <stop
         id="stop3244"
         offset="0"
         style="stop-color:#f4f4f4;stop-opacity:1" />
      <stop
         id="stop3240"
         offset="1"
         style="stop-color:white;stop-opacity:1" />
    </linearGradient>
    <linearGradient
       id="linearGradient4671">
      <stop
         id="stop4673"
         offset="0"
         style="stop-color:#ffd43b;stop-opacity:1;" />
      <stop
         id="stop4675"
         offset="1"
         style="stop-color:#ffe873;stop-opacity:1" />
    </linearGradient>
    <linearGradient
       id="linearGradient4689">
      <stop
         id="stop4691"
         offset="0"
         style="stop-color:#5a9fd4;stop-opacity:1;" />
      <stop
         id="stop4693"
         offset="1"
         style="stop-color:#306998;stop-opacity:1;" />
    </linearGradient>
    <linearGradient
       gradientTransform="translate(100.2702,99.61116)"
       gradientUnits="userSpaceOnUse"
       xlink:href="#linearGradient4671"
       id="linearGradient2987"
       y2="144.75717"
       x2="-65.308502"
       y1="144.75717"
       x1="224.23996" />
    <linearGradient
       gradientTransform="translate(100.2702,99.61116)"
       gradientUnits="userSpaceOnUse"
       xlink:href="#linearGradient4689"
       id="linearGradient2990"
       y2="76.313133"
       x2="26.670298"
       y1="77.475983"
       x1="172.94208" />
    <linearGradient
       y2="144.75717"
       x2="-65.308502"
       y1="144.75717"
       x1="224.23996"
       gradientTransform="matrix(0.562541,0,0,0.567972,-11.5974,-7.60954)"
       gradientUnits="userSpaceOnUse"
       id="linearGradient2255"
       xlink:href="#linearGradient4671"
       inkscape:collect="always" />
    <linearGradient
       y2="76.313133"
       x2="26.670298"
       y1="76.176224"
       x1="172.94208"
       gradientTransform="matrix(0.562541,0,0,0.567972,-11.5974,-7.60954)"
       gradientUnits="userSpaceOnUse"
       id="linearGradient2258"
       xlink:href="#linearGradient4689"
       inkscape:collect="always" />
    <radialGradient
       gradientUnits="userSpaceOnUse"
       gradientTransform="matrix(1,0,0,0.177966,0,108.7434)"
       r="29.036913"
       fy="132.28575"
       fx="61.518883"
       cy="132.28575"
       cx="61.518883"
       id="radialGradient2801"
       xlink:href="#linearGradient2795"
       inkscape:collect="always" />
  </defs>
  <sodipodi:namedview
     inkscape:document-rotation="0"
     inkscape:window-maximized="1"
     inkscape:window-y="0"
     inkscape:window-x="0"
     inkscape:window-height="995"
     inkscape:window-width="1920"
     showgrid="false"
     inkscape:current-layer="layer1-6"
     inkscape:document-units="mm"
     inkscape:cy="22.862101"
     inkscape:cx="6.3971935"
     inkscape:zoom="9.5354314"
     inkscape:pageshadow="2"
     inkscape:pageopacity="1"
     borderopacity="1.0"
     bordercolor="#666666"
     pagecolor="#009aff"
     id="base"
     inkscape:pagecheckerboard="0"
     inkscape:showpageshadow="2"
     inkscape:deskcolor="#d1d1d1"
     inkscape:export-bgcolor="#009affff">
    <inkscape:grid
       id="grid12"
       type="xygrid"
       originx="0"
       originy="0"
       spacingy="1"
       spacingx="1"
       units="mm" />
  </sodipodi:namedview>
  <metadata
     id="metadata5">
    <rdf:RDF>
      <cc:Work
         rdf:about="">
        <dc:format>image/svg+xml</dc:format>
        <dc:type
           rdf:resource="http://purl.org/dc/dcmitype/StillImage" />
      </cc:Work>
    </rdf:RDF>
  </metadata>
  <g
     transform="translate(0,3)"
     id="layer1"
     inkscape:groupmode="layer"
     inkscape:label="Livello 1">
    <g
       transform="matrix(1.3394531,0,0,1.3394531,-557.99667,-263.74048)"
       id="layer1-6"
       inkscape:label="Calque 1">
      <g
         transform="matrix(0.14785592,0,0,0.14785592,419.69574,194.4833)"
         id="g1894">
        <path
           id="path8615"
           d="m 99.809711,75.707208 c -23.826972,1e-6 -22.339062,10.332812 -22.339062,10.332812 l 0.02656,10.704688 H 100.23471 V 99.95877 H 68.465961 c 0,0 -15.246875,-1.729135 -15.246875,22.3125 -10e-7,24.04163 13.307813,23.18906 13.307813,23.18906 h 7.942187 v -11.15625 c 0,0 -0.428104,-13.30781 13.095313,-13.30781 13.523411,0 22.551561,0 22.551561,0 0,0 12.67031,0.20482 12.67031,-12.24531 0,-12.450128 0,-20.58594 0,-20.58594 0,-2e-6 1.92371,-12.457812 -22.976559,-12.457812 z m -12.5375,7.198437 c 2.262215,-2e-6 4.090625,1.82841 4.090625,4.090625 2e-6,2.262215 -1.82841,4.090625 -4.090625,4.090625 -2.262214,2e-6 -4.090625,-1.82841 -4.090625,-4.090625 -10e-7,-2.262215 1.828411,-4.090625 4.090625,-4.090625 z"
           style="color:#000000;display:inline;overflow:visible;visibility:visible;opacity:1;fill:#ffffff;fill-opacity:1;fill-rule:nonzero;stroke:none;stroke-width:0.85;stroke-linecap:butt;stroke-linejoin:miter;stroke-miterlimit:4;stroke-dasharray:none;stroke-dashoffset:0;stroke-opacity:1;marker:none;marker-start:none;marker-mid:none;marker-end:none"
           inkscape:connector-curvature="0" />
        <path
           style="color:#000000;display:inline;overflow:visible;visibility:visible;opacity:1;fill:#ffffff;fill-opacity:1;fill-rule:nonzero;stroke:none;stroke-width:0.85;stroke-linecap:butt;stroke-linejoin:miter;stroke-miterlimit:4;stroke-dasharray:none;stroke-dashoffset:0;stroke-opacity:1;marker:none;marker-start:none;marker-mid:none;marker-end:none"
           d="m 100.4864,169.07639 c 23.82698,0 22.33906,-10.33281 22.33906,-10.33281 l -0.0265,-10.70469 h -22.7375 v -3.21406 h 31.76875 c 0,0 15.24687,1.72913 15.24687,-22.31251 1e-5,-24.041625 -13.30781,-23.189058 -13.30781,-23.189058 h -7.94219 v 11.156248 c 0,0 0.42811,13.30781 -13.09531,13.30781 -13.523415,0 -22.551563,0 -22.551563,0 0,0 -12.670312,-0.20481 -12.670312,12.24532 0,12.45012 0,20.58594 0,20.58594 0,0 -1.923703,12.45781 22.976565,12.45781 z m 12.5375,-7.19843 c -2.26222,0 -4.09063,-1.82841 -4.09063,-4.09063 0,-2.26222 1.82841,-4.09062 4.09063,-4.09062 2.26221,0 4.09062,1.8284 4.09062,4.09062 1e-5,2.26222 -1.82841,4.09063 -4.09062,4.09063 z"
           id="path8620"
           inkscape:connector-curvature="0" />
      </g>
    </g>
  </g>
</svg>
