<?xml version="1.0" encoding="UTF-8" standalone="no"?>
<svg
   inkscape:export-ydpi="2048"
   inkscape:export-xdpi="2048"
   inkscape:export-filename="sebaubuntu-infra.png"
   sodipodi:docname="sebaubuntu-infra.svg"
   inkscape:version="1.4.3 (0d15f75042, 2025-12-25)"
   id="svg8"
   version="1.1"
   viewBox="0 0 48 48"
   height="48"
   width="48"
   xml:space="preserve"
   xmlns:inkscape="http://www.inkscape.org/namespaces/inkscape"
   xmlns:sodipodi="http://sodipodi.sourceforge.net/DTD/sodipodi-0.dtd"
   xmlns:xlink="http://www.w3.org/1999/xlink"
   xmlns="http://www.w3.org/2000/svg"
   xmlns:svg="http://www.w3.org/2000/svg"
   xmlns:rdf="http://www.w3.org/1999/02/22-rdf-syntax-ns#"
   xmlns:cc="http://creativecommons.org/ns#"
   xmlns:dc="http://purl.org/dc/elements/1.1/"><defs
     id="defs2"><linearGradient
       id="linearGradient2795"><stop
         id="stop2797"
         offset="0"
         style="stop-color:#b8b8b8;stop-opacity:0.49803922;" /><stop
         id="stop2799"
         offset="1"
         style="stop-color:#7f7f7f;stop-opacity:0;" /></linearGradient><linearGradient
       id="linearGradient2787"><stop
         id="stop2789"
         offset="0"
         style="stop-color:#7f7f7f;stop-opacity:0.5;" /><stop
         id="stop2791"
         offset="1"
         style="stop-color:#7f7f7f;stop-opacity:0;" /></linearGradient><linearGradient
       id="linearGradient3676"><stop
         id="stop3678"
         offset="0"
         style="stop-color:#b2b2b2;stop-opacity:0.5;" /><stop
         id="stop3680"
         offset="1"
         style="stop-color:#b3b3b3;stop-opacity:0;" /></linearGradient><linearGradient
       id="linearGradient3236"><stop
         id="stop3244"
         offset="0"
         style="stop-color:#f4f4f4;stop-opacity:1" /><stop
         id="stop3240"
         offset="1"
         style="stop-color:white;stop-opacity:1" /></linearGradient><linearGradient
       id="linearGradient4671"><stop
         id="stop4673"
         offset="0"
         style="stop-color:#ffd43b;stop-opacity:1;" /><stop
         id="stop4675"
         offset="1"
         style="stop-color:#ffe873;stop-opacity:1" /></linearGradient><linearGradient
       id="linearGradient4689"><stop
         id="stop4691"
         offset="0"
         style="stop-color:#5a9fd4;stop-opacity:1;" /><stop
         id="stop4693"
         offset="1"
         style="stop-color:#306998;stop-opacity:1;" /></linearGradient><linearGradient
       gradientTransform="translate(100.2702,99.61116)"
       gradientUnits="userSpaceOnUse"
       xlink:href="#linearGradient4671"
       id="linearGradient2987"
       y2="144.75717"
       x2="-65.308502"
       y1="144.75717"
       x1="224.23996" /><linearGradient
       gradientTransform="translate(100.2702,99.61116)"
       gradientUnits="userSpaceOnUse"
       xlink:href="#linearGradient4689"
       id="linearGradient2990"
       y2="76.313133"
       x2="26.670298"
       y1="77.475983"
       x1="172.94208" /><linearGradient
       y2="144.75717"
       x2="-65.308502"
       y1="144.75717"
       x1="224.23996"
       gradientTransform="matrix(0.562541,0,0,0.567972,-11.5974,-7.60954)"
       gradientUnits="userSpaceOnUse"
       id="linearGradient2255"
       xlink:href="#linearGradient4671"
       inkscape:collect="always" /><linearGradient
       y2="76.313133"
       x2="26.670298"
       y1="76.176224"
       x1="172.94208"
       gradientTransform="matrix(0.562541,0,0,0.567972,-11.5974,-7.60954)"
       gradientUnits="userSpaceOnUse"
       id="linearGradient2258"
       xlink:href="#linearGradient4689"
       inkscape:collect="always" /><radialGradient
       gradientUnits="userSpaceOnUse"
       gradientTransform="matrix(1,0,0,0.177966,0,108.7434)"
       r="29.036913"
       fy="132.28575"
       fx="61.518883"
       cy="132.28575"
       cx="61.518883"
       id="radialGradient2801"
       xlink:href="#linearGradient2795"
       inkscape:collect="always" /></defs><sodipodi:namedview
     inkscape:document-rotation="0"
     inkscape:window-maximized="1"
     inkscape:window-y="0"
     inkscape:window-x="0"
     inkscape:window-height="995"
     inkscape:window-width="1920"
     showgrid="false"
     inkscape:current-layer="layer1-6"
     inkscape:document-units="mm"
     inkscape:cy="33.504422"
     inkscape:cx="18.500758"
     inkscape:zoom="8.8645016"
     inkscape:pageshadow="2"
     inkscape:pageopacity="1"
     borderopacity="1.0"
     bordercolor="#666666"
     pagecolor="#009aff"
     id="base"
     inkscape:pagecheckerboard="0"
     inkscape:showpageshadow="2"
     inkscape:deskcolor="#d1d1d1"
     inkscape:export-bgcolor="#009affff"><inkscape:grid
       id="grid12"
       type="xygrid"
       originx="0"
       originy="0"
       spacingy="1"
       spacingx="1"
       units="mm" /></sodipodi:namedview><metadata
     id="metadata5"><rdf:RDF><cc:Work
         rdf:about=""><dc:format>image/svg+xml</dc:format><dc:type
           rdf:resource="http://purl.org/dc/dcmitype/StillImage" /></cc:Work></rdf:RDF></metadata><g
     transform="translate(0,3)"
     id="layer1"
     inkscape:groupmode="layer"
     inkscape:label="Livello 1"><g
       transform="matrix(1.3394531,0,0,1.3394531,-557.99667,-263.74048)"
       id="layer1-6"
       inkscape:label="Calque 1"><g
         style="fill:#ffffff;fill-opacity:1"
         id="g1"
         transform="matrix(0.02299455,0,0,0.02299455,423.46583,223.61704)"><path
           d="m 771,-593 -141,-141 -85,84 -85,-84 113,-114 q 12,-12 27,-17.5 15,-5.5 30,-5.5 16,0 30.5,5.5 14.5,5.5 25.5,17.5 l 85,85 q 18,17 26.5,39.5 8.5,22.5 8.5,45.5 0,23 -8.5,45 -8.5,22 -26.5,40 z m -551,184 q -18,-18 -18,-42.5 0,-24.5 18,-42.5 l 98,-99 85,85 -99,99 q -17,18 -41.5,18 -24.5,0 -42.5,-18 z m -43,297 q -11,-12 -17,-26.5 -6,-14.5 -6,-30.5 0,-16 5.5,-30.5 Q 165,-214 177,-226 L 460,-508 333,-636 q -18,-17 -18,-41.5 0,-24.5 18,-42.5 17,-18 42,-18 25,0 43,18 l 127,127 57,-57 112,114 q 12,12 12,28 0,16 -12,28 -12,12 -28,12 -16,0 -28,-12 l -368,368 q -12,12 -26.5,17.5 -14.5,5.5 -29.5,5.5 -15,0 -30,-6 -15,-6 -27,-17 z"
           id="path1"
           style="fill:#ffffff;fill-opacity:1" /></g></g></g></svg>
