<?xml version="1.0" encoding="UTF-8" standalone="no"?>
<svg
   xmlns:dc="http://purl.org/dc/elements/1.1/"
   xmlns:cc="http://creativecommons.org/ns#"
   xmlns:rdf="http://www.w3.org/1999/02/22-rdf-syntax-ns#"
   xmlns:svg="http://www.w3.org/2000/svg"
   xmlns="http://www.w3.org/2000/svg"
   xmlns:sodipodi="http://sodipodi.sourceforge.net/DTD/sodipodi-0.dtd"
   xmlns:inkscape="http://www.inkscape.org/namespaces/inkscape"
   width="200mm"
   height="100mm"
   viewBox="0 0 200 100"
   version="1.1"
   id="svg8"
   inkscape:export-filename="/home/seba/Scrivania/emxcc.png"
   inkscape:export-xdpi="96"
   inkscape:export-ydpi="96"
   inkscape:version="1.0.1 (3bc2e813f5, 2020-09-07)"
   sodipodi:docname="emxcc.svg">
  <defs
     id="defs2" />
  <sodipodi:namedview
     id="base"
     pagecolor="#ffffff"
     bordercolor="#666666"
     borderopacity="1.0"
     inkscape:pageopacity="1"
     inkscape:pageshadow="2"
     inkscape:zoom="0.98994949"
     inkscape:cx="381.6677"
     inkscape:cy="307.97671"
     inkscape:document-units="mm"
     inkscape:current-layer="layer1"
     inkscape:document-rotation="0"
     showgrid="false"
     inkscape:window-width="1440"
     inkscape:window-height="863"
     inkscape:window-x="0"
     inkscape:window-y="0"
     inkscape:window-maximized="0" />
  <metadata
     id="metadata5">
    <rdf:RDF>
      <cc:Work
         rdf:about="">
        <dc:format>image/svg+xml</dc:format>
        <dc:type
           rdf:resource="http://purl.org/dc/dcmitype/StillImage" />
        <dc:title></dc:title>
      </cc:Work>
    </rdf:RDF>
  </metadata>
  <g
     inkscape:label="Livello 1"
     inkscape:groupmode="layer"
     id="layer1">
    <g
       id="g960"
       transform="matrix(0.41341146,0,0,0.41341146,30.495273,45.865759)">
      <path
         d="m 45.871,10.46 h 3.7322 V 9.47318 H 45.871 v -2.171 h 5.5643 V 6.31534 h -6.7178 v 7.5658 h 6.9214 v -0.9869 H 45.871 v -2.4342 z"
         id="path907" />
      <path
         d="m 75.457,10.855 c 0.0679,1.1842 -0.8142,2.171 -2.0357,2.2368 h -0.2714 c -1.1536,0.0658 -2.1036,-0.8553 -2.1714,-1.9737 V 10.855 6.3813 h -1.0857 v 4.5395 c -0.0679,1.6447 1.2214,3.0921 2.9857,3.1578 h 0.2714 c 2.5786,0 3.3929,-1.7105 3.3929,-3.1578 V 6.3813 H 75.457 Z"
         id="path909" />
      <path
         d="m 83.939,6.3158 h -1.0857 v 7.5 h 1.0857 z"
         id="path911" />
      <path
         d="M 97.239,12.237 91.7426,6.316 h -1.0857 v 7.5658 h 1.0857 V 7.9607 l 5.4964,5.9211 h 1.0857 V 6.316 H 97.239 Z"
         id="path913" />
      <path
         d="m 106.2,6.3158 h -1.085 v 7.5 h 1.085 z"
         id="path915" />
      <path
         d="m 117.05,9.8026 3.257,-3.4868 h -1.425 L 116.371,9.079 113.86,6.3158 h -1.493 l 3.122,3.4868 -3.868,4.079 h 1.425 l 3.189,-3.3553 3.054,3.3553 h 1.561 z"
         id="path917" />
      <path
         d="m 60.121,6.0526 c -2.2393,0 -4.0714,1.7763 -4.0714,3.9474 v 0.1316 c -0.0679,2.171 1.6964,3.9473 3.8679,4.0131 h 0.2714 c 0.6107,0 1.2214,-0.1315 1.8321,-0.3947 l 0.6107,0.7237 H 63.921 L 62.8353,13.1579 C 63.7853,12.3684 64.396,11.25 64.3282,10 64.396,7.829 62.6317,6.0526 60.3925,5.9868 60.3246,6.05259 60.2567,6.05259 60.121,6.05259 Z m 2.9857,4.079 c 0.0679,0.921 -0.3392,1.7763 -1.0178,2.3684 l -0.6107,-0.6579 h -1.2893 l 1.0857,1.1842 c -0.3393,0.1316 -0.7464,0.1974 -1.0857,0.1974 -1.6286,0 -2.9857,-1.3158 -2.9857,-2.8948 v -0.1315 c -0.1357,-1.579 1.0857,-2.9606 2.7143,-3.0921 h 0.1357 c 1.6964,0 2.9857,1.3158 2.9857,2.9605 0.0678,-0.0658 0.0678,0 0.0678,0.0658 z"
         id="path919" />
      <path
         d="m 29.518,4.671 v 8.8816 l -2.1036,0.7237 V 3.9473 l -6.3107,-2.171 v 14.671 L 19.0001,17.171 V 1.053 L 15.8108,4e-4 12.6215,1.053 V 17.171 L 10.518,16.4473 V 1.7763 l -6.3108,2.171 v 10.329 L 2.1036,13.5526 V 4.671 L 0,5.3289 v 9.7368 L 6.3107,17.171 V 5.395 L 8.4143,4.67131 v 13.224 l 6.3107,2.1053 v -17.5 l 1.0857,-0.32895 1.0857,0.32895 v 17.5 l 6.3107,-2.1053 V 4.67131 L 25.3107,5.395 v 11.776 l 6.3107,-2.1053 V 5.3289 L 29.5179,4.671 Z"
         fill="#ed1c24"
         id="path921" />
      <path
         d="m 35.625,14.342 c 1.0179,0 1.9,-0.8553 1.9,-1.8421 0,-0.9868 -0.8821,-1.8421 -1.9,-1.8421 -1.0179,0 -1.9,0.8553 -1.9,1.8421 0,1.0526 0.8821,1.8421 1.9,1.8421 z m 0,-0.1974 c -0.95,0 -1.6964,-0.7236 -1.6964,-1.6447 0,-0.921 0.7464,-1.6447 1.6964,-1.6447 0.95,0 1.6964,0.7237 1.6964,1.6447 0.0679,0.9211 -0.6785,1.6447 -1.6964,1.6447 0.0679,0 0.0679,0 0,0 z M 34.8786,13.421 h 0.475 v -0.5921 h 0.2714 l 0.4071,0.5921 h 0.6108 l -0.475,-0.6579 c 0.2714,-0.0658 0.475,-0.329 0.4071,-0.5921 0,-0.4606 -0.3393,-0.6579 -0.8143,-0.6579 h -0.95 z m 0.475,-0.9869 v -0.5263 h 0.4071 c 0.2036,0 0.3393,0.0658 0.3393,0.2632 0,0.1973 -0.1357,0.2631 -0.3393,0.2631 z"
         fill="#ed1c24"
         id="path923" />
      <path
         d="m 134.36,0 h -0.339 v 20 h 0.339 z"
         fill="#707073"
         id="path925" />
      <path
         d="m 147.25,6.3816 h 1.493 l 2.511,3.5526 2.442,-3.5526 h 1.493 v 7.5 h -1.425 v -5.329 l -2.578,3.5527 h -0.068 l -2.511,-3.4869 v 5.329 h -1.357 z"
         fill="#707073"
         id="path927" />
      <path
         d="m 158.11,6.3816 h 6.039 v 1.1842 h -4.546 v 1.9737 h 4.071 v 1.1842 h -4.071 v 1.9737 h 4.614 v 1.1842 h -6.107 z"
         fill="#707073"
         id="path929" />
      <path
         d="m 168.96,7.6316 h -2.578 v -1.25 h 6.582 v 1.25 h -2.579 v 6.25 h -1.425 z"
         fill="#707073"
         id="path931" />
      <path
         d="m 177.04,6.3158 h 1.357 l 3.529,7.5 h -1.493 l -0.814,-1.7763 h -3.868 l -0.814,1.7763 h -1.425 z m 2.036,4.6053 -1.425,-2.9606 -1.357,2.9606 z"
         fill="#707073"
         id="path933" />
      <path
         d="m 184.3,6.3816 h 1.425 v 6.25 H 190 v 1.1842 h -5.7 z"
         fill="#707073"
         id="path935" />
    </g>
    <g
       id="g1044"
       transform="matrix(0.64595539,0,0,0.64595539,140.43673,34.820048)">
      <path
         fill="#e74c3c"
         d="m 38,26.9 c -1.9,3 -6,5.1 -9.4,5.1 0,0 0,0 -0.1,0 v 0 C 23.8,32 20,28.2 20,23.5 c 2.8,-1.7 2.1,-6.4 5,-7.7 1.1,-0.5 2.3,-0.8 3.5,-0.8 v 0 c 0,0 0,0 0.1,0 3.4,0 7.4,2 9.3,4.9 l 6.8,-7.4 C 41.1,7.4 35.2,4 28.6,4 17.8,4 9.1,12.7 9.1,23.5 9.1,34.3 17.8,43 28.6,43 c 6.9,0 13,-3.6 16.4,-9.1 z"
         id="path1018" />
      <path
         fill="#2980b9"
         d="M 30,7.4 C 30,6.6 29.4,6 28.6,6 28,6 27.5,6.4 27.3,7 l -7,15 2,4 c 0,0 7.4,-17.6 7.5,-18 V 8 C 29.9,7.8 30,7.6 30,7.4 Z"
         id="path1020" />
      <path
         fill="#2980b9"
         d="m 27,29 -5,-1 1.1,-5.5 c 0.2,-0.4 -0.2,-1.3 0.3,-1.2 l 3.9,1.4 c 0.5,0.2 0.8,0.6 0.7,1.1 z"
         id="path1022" />
      <path
         fill="#f39c12"
         d="m 22,28 -8,6 -3,7 h 4 c 0.4,-0.2 1,-0.7 1.2,-1 0,0 -0.1,0.5 -0.5,1 H 19 c 0,0 5.8,-2.9 8,-12 z"
         id="path1024" />
      <path
         fill="#f1c40f"
         d="m 14,23 c 0,0 -5.5,8 -12,8 0,0 0.2,3.4 4.2,6.9 0.9,-0.1 2,-0.3 2.8,-0.9 0,0 -0.6,1.1 -1.4,2 1,0.7 2.1,1.4 3.4,2 0,0 7.7,-5 11,-13 z"
         id="path1026" />
      <path
         fill="#3498db"
         d="m 14,23 8,5 2.2,-5.1 c 0.3,-0.5 0,-1.2 -0.5,-1.4 l -5.9,-2.3 c -0.4,-0.2 -0.9,0 -1.2,0.3 z"
         id="path1028" />
    </g>
    <g
       id="g1287"
       transform="matrix(0.01986616,0,0,0.01986616,120.13456,45.072239)">
      <g
         id="g1230">
	<g
   id="g1228">
		<path
   d="M 259.41,247.998 493.754,13.654 c 3.123,-3.124 3.123,-8.188 0,-11.312 -3.124,-3.123 -8.188,-3.123 -11.312,0 L 248.098,236.686 13.754,2.342 C 10.576,-0.727 5.512,-0.639 2.442,2.539 c -2.994,3.1 -2.994,8.015 0,11.115 L 236.786,247.998 2.442,482.342 c -3.178,3.07 -3.266,8.134 -0.196,11.312 3.07,3.178 8.134,3.266 11.312,0.196 0.067,-0.064 0.132,-0.13 0.196,-0.196 L 248.098,259.31 482.442,493.654 c 3.178,3.07 8.242,2.982 11.312,-0.196 2.995,-3.1 2.995,-8.016 0,-11.116 z"
   id="path1226" />

	</g>

</g>
      <g
         id="g1232">
</g>
      <g
         id="g1234">
</g>
      <g
         id="g1236">
</g>
      <g
         id="g1238">
</g>
      <g
         id="g1240">
</g>
      <g
         id="g1242">
</g>
      <g
         id="g1244">
</g>
      <g
         id="g1246">
</g>
      <g
         id="g1248">
</g>
      <g
         id="g1250">
</g>
      <g
         id="g1252">
</g>
      <g
         id="g1254">
</g>
      <g
         id="g1256">
</g>
      <g
         id="g1258">
</g>
      <g
         id="g1260">
</g>
    </g>
  </g>
</svg>
